<?xml version="1.0" encoding="UTF-8"?>
<!DOCTYPE svg PUBLIC "-//W3C//DTD SVG 1.1//EN" "http://www.w3.org/Graphics/SVG/1.1/DTD/svg11.dtd">
<svg version="1.1" xmlns="http://www.w3.org/2000/svg" xmlns:xlink="http://www.w3.org/1999/xlink" x="0" y="0" width="360" height="480" viewBox="0, 0, 360, 480">
  <g id="Layer_1">
    <g>
      <g>
        <path d="M215.131,468.238 C192.254,468.238 -1.701,302.238 100.251,201.078 C185.196,116.879 197.612,46.047 169.026,11.761 C169.026,11.761 335.923,220.798 170.466,306.112 C100.744,342.062 180.27,435.75 226.025,468.238 L215.131,468.238 z" fill="#000000"/>
      </g>
      <g>
        <path d="M223.135,468.239 C233.604,468.239 322.358,392.276 275.704,345.984 C236.833,307.454 231.151,275.041 244.233,259.352 C244.233,259.352 167.86,355.008 243.574,394.048 C275.479,410.499 239.087,453.372 218.15,468.239 L223.135,468.239 z" fill="#000000"/>
      </g>
    </g>
  </g>
  <g id="Layer_1_Copy" display="none">
    <g>
      <g>
        <path d="M124.037,172.948 C112.085,172.948 10.758,86.225 64.02,33.376 C108.398,-10.612 114.885,-47.617 99.95,-65.529 C99.95,-65.529 187.142,43.678 100.702,88.248 C64.278,107.03 105.825,155.975 129.728,172.948 L124.037,172.948 z" fill="#960100"/>
        <path d="M124.037,172.948 C112.085,172.948 10.758,86.225 64.02,33.376 C108.398,-10.612 114.885,-47.617 99.95,-65.529 C99.95,-65.529 187.142,43.678 100.702,88.248 C64.278,107.03 105.825,155.975 129.728,172.948 L124.037,172.948 z" fill-opacity="0" stroke="#000000" stroke-width="2"/>
      </g>
    </g>
    <g>
      <g>
        <path d="M50.601,56.621 C56.722,56.621 108.623,12.201 81.342,-14.869 C58.611,-37.4 55.288,-56.354 62.938,-65.529 C62.938,-65.529 18.278,-9.592 62.553,13.237 C81.21,22.857 59.929,47.928 47.685,56.621 L50.601,56.621 z" fill="#FFBE00"/>
        <path d="M50.601,56.621 C56.722,56.621 108.623,12.201 81.342,-14.869 C58.611,-37.4 55.288,-56.354 62.938,-65.529 C62.938,-65.529 18.278,-9.592 62.553,13.237 C81.21,22.857 59.929,47.928 47.685,56.621 L50.601,56.621 z" fill-opacity="0" stroke="#000000" stroke-width="2"/>
      </g>
    </g>
  </g>
</svg>
